Coordinates
version=1
nRows=16
nColumns=22
inDegrees=yes

Units are S.I. units (second, meters, Newtons, ...)
If the header above contains a line with 'inDegrees', this indicates whether rotational values are in degrees (yes) or radians (no).

endheader
time	pelvis_tilt	pelvis_list	pelvis_rotation	pelvis_tx	pelvis_ty	pelvis_tz	hip_flexion_r	hip_adduction_r	hip_rotation_r	knee_angle_r	ankle_angle_r	subtalar_angle_r	hip_flexion_l	hip_adduction_l	hip_rotation_l	knee_angle_l	ankle_angle_l	subtalar_angle_l	lumbar_extension	lumbar_bending	lumbar_rotation
      2.38000000	     -3.58622718	     -3.54146178	    -22.37072498	      1.32418472	      0.92982529	      0.42804311	     18.63263406	      5.49529758	     -1.71170809	    -58.35455833	     25.25492573	      2.35864734	     41.68898689	     -8.11133558	     -6.21311905	    -28.89589269	     -4.90535298	     16.04027819	     -7.04936764	      4.97078925	     13.94870772
      2.39000000	     -3.64234117	     -3.41315648	    -22.63523571	      1.33945741	      0.92862778	      0.43052065	     18.85510485	      5.34002580	     -0.98588566	    -60.18908919	     24.24612075	      2.47659043	     41.65742285	     -7.93592501	     -6.49100952	    -30.18732461	     -3.33493539	     12.91293833	     -6.56566395	      4.82700691	     13.70127725
      2.40000000	     -3.67369540	     -3.20932832	    -22.80316780	      1.35421308	      0.92695420	      0.43277787	     19.33501802	      5.07045983	     -0.40410921	    -62.32176004	     23.28545382	      2.16164326	     41.76000570	     -7.63227712	     -6.63906567	    -31.81577348	     -1.59493152	      9.73557973	     -6.15796322	      4.58057015	     13.30500131
      2.41000000	     -3.69821125	     -2.92261869	    -22.93440990	      1.36822620	      0.92488186	      0.43482066	     20.08494449	      4.68644918	      0.04163635	    -64.67022562	     22.45427753	      1.42891415	     42.00163391	     -7.24997488	     -6.73933911	    -33.65827983	      0.17837795	      6.78632966	     -5.83577523	      4.23198253	     12.83633021
      2.42000000	     -3.68235323	     -2.54547049	    -22.99896185	      1.38160102	      0.92262982	      0.43659965	     21.04092784	      4.17776403	      0.38223455	    -67.13731024	     21.78907391	      0.43517839	     42.30862092	     -6.75630577	     -6.82393721	    -35.57705934	      1.86600405	      4.26186510	     -5.61660710	      3.76912573	     12.28438402
      2.43000000	     -3.61745916	     -2.08107866	    -23.01674719	      1.39433896	      0.92040403	      0.43812982	     22.16059340	      3.55024832	      0.64616451	    -69.61193913	     21.33554514	     -0.68382590	     42.61702209	     -6.16463939	     -6.93605408	    -37.45110544	      3.42724493	      2.25741973	     -5.50549269	      3.19736998	     11.68371491
      2.44000000	     -3.52353312	     -1.53885495	    -23.00807654	      1.40642874	      0.91836724	      0.43944052	     23.43423573	      2.83366793	      0.86215891	    -71.99324900	     21.09006923	     -1.77682534	     42.89364837	     -5.49983298	     -7.09792147	    -39.18078051	      4.83692291	      0.81183846	     -5.47599219	      2.53973623	     11.07858618
      2.45000000	     -3.41024667	     -0.95315970	    -22.99733651	      1.41787947	      0.91669440	      0.44058913	     24.82400877	      2.07918994	      1.04839069	    -74.18075006	     21.04309515	     -2.80588941	     43.09271927	     -4.80500184	     -7.31335905	    -40.69509201	      6.10193735	     -0.18689831	     -5.51989601	      1.83959319	     10.48913560
      2.46000000	     -3.30983479	     -0.34355508	    -23.00736630	      1.42869406	      0.91547332	      0.44162586	     26.33093615	      1.33566399	      1.22337330	    -76.10306157	     21.13994577	     -3.72043179	     43.21189102	     -4.11861871	     -7.59092927	    -41.95171161	      7.21747044	     -0.82577111	     -5.59492608	      1.13353660	      9.94813601
      2.47000000	     -3.23849660	      0.26613227	    -23.04602006	      1.43889294	      0.91477838	      0.44259037	     27.93256852	      0.64587818	      1.38950336	    -77.70102338	     21.34025561	     -4.51347863	     43.24260920	     -3.46698270	     -7.92205749	    -42.92825268	      8.18539509	     -1.21586926	     -5.67787952	      0.45281729	      9.45808903
      2.48000000	     -3.20554012	      0.85477271	    -23.10679594	      1.44850070	      0.91464542	      0.44351082	     29.59831167	      0.04057702	      1.53522222	    -78.93147687	     21.60457917	     -5.16826567	     43.18351586	     -2.86408678	     -8.28672295	    -43.62314661	      9.01086007	     -1.44417107	     -5.75533030	     -0.18157789	      9.01210672
      2.49000000	     -3.21788075	      1.40102348	    -23.17768054	      1.45756033	      0.91507854	      0.44439286	     31.29057828	     -0.45809923	      1.64123453	    -79.76216476	     21.89827717	     -5.70027564	     43.04046846	     -2.31931526	     -8.65992875	    -44.05272098	      9.69782903	     -1.58451422	     -5.81895465	     -0.74222245	      8.59022110
      2.50000000	     -3.25367283	      1.89563949	    -23.23072252	      1.46612389	      0.91610199	      0.44522178	     32.94468261	     -0.86685300	      1.68060138	    -80.17348882	     22.22876057	     -6.01597226	     42.79615278	     -1.81129880	     -9.01272835	    -44.23216657	     10.23594977	     -1.64321115	     -5.89469245	     -1.23281747	      8.15931334
      2.51000000	     -3.36296606	      2.31592820	    -23.27225723	      1.47421397	      0.91761019	      0.44604519	     34.56932640	     -1.13430719	      1.64544004	    -80.15401645	     22.50149730	     -6.25163496	     42.50915392	     -1.38314955	     -9.31751175	    -44.20093216	     10.66903009	     -1.68744814	     -5.93192047	     -1.60786780	      7.72478523
      2.52000000	     -3.51431668	      2.66053329	    -23.27077647	      1.48189062	      0.91958823	      0.44680970	     36.09886548	     -1.30735785	      1.50561266	    -79.70922124	     22.74773011	     -6.34416373	     42.16925524	     -1.00326954	     -9.55138622	    -43.99828099	     10.98239754	     -1.69907102	     -5.97283102	     -1.87937026	      7.26840702
      2.53000000	     -3.71025616	      2.93363107	    -23.21430909	      1.48923157	      0.92199830	      0.44753840	     37.50306260	     -1.41085097	      1.24852147	    -78.84297615	     22.96914080	     -6.28657855	     41.78188013	     -0.66672740	     -9.70972406	    -43.63396449	     11.18356613	     -1.67478087	     -6.00511854	     -2.05449164	      6.79031175
